<?xml version="1.0" encoding="utf-8"?>
<!-- Generator: Adobe Illustrator 15.1.0, SVG Export Plug-In . SVG Version: 6.00 Build 0)  -->
<!DOCTYPE svg PUBLIC "-//W3C//DTD SVG 1.1//EN" "http://www.w3.org/Graphics/SVG/1.1/DTD/svg11.dtd">
<svg version="1.1" id="Layer_1" xmlns="http://www.w3.org/2000/svg" xmlns:xlink="http://www.w3.org/1999/xlink" x="0px" y="0px"
	 width="850.395px" height="850.395px" viewBox="0 0 850.395 850.395" enable-background="new 0 0 850.395 850.395"
	 xml:space="preserve">
<path fill="#FFFFFF" d="M802.605,763.87c-0.895-9.676-1.254-9.138-7.882-21.86c-6.632-12.722-134.033-232.583-134.033-232.583
	s102.436-86.002,102.436-244.446H676.62c0,0,4.416,85.177-61.784,164.177c-43.518-74.871-85.181-146.968-85.181-146.968
	l19.225-19.68c0,0,6.093-3.404,6.093-19.352c0-15.948,0-101.598,0-101.598s1.432-52.95-52.949-52.95
	c-12.229,0-24.637-0.089-24.637-0.089V0.541H367.835v88.07c0,0-18.388,0-24.301,0s-53.218,1.165-53.218,54.383
	c0,53.218,0,100.165,0,100.165s0.447,14.066,5.822,19.441c5.375,5.375,20.338,20.337,20.338,20.337L46.623,750.254
	c0,0-2.867,4.299-3.941,18.993c-1.076,14.693-5.197,66.657-5.197,66.657s-0.807,8.331,1.972,11.109
	c2.777,2.778,10.482,1.702,12.185,0s60.744-40.718,64.865-44.795c4.121-4.077,7.706-6.272,14.156-18.636
	c11.826-20.427,60.385-104.644,60.385-104.644l66.478-115.754c0,0,151.592,96.403,330.418,0.359
	c15.376,26.075,127.222,217.709,127.222,217.709s6.63,14.155,16.665,21.323c10.034,7.167,62.356,42.467,62.356,42.467
	s3.585,3.405,8.779,2.509c5.197-0.896,5.197-8.602,5.197-13.798C808.162,828.557,803.503,773.546,802.605,763.87z M422.769,132.467
	c85.473,0,87.892,132.058,0,132.058C334.073,264.525,337.836,132.467,422.769,132.467z M301.282,486.134l79.647-138.555
	l18.188,18.144c0,0,8.912,8.645,23.651,8.645s24.64-9.675,24.64-9.675l17.201-17.113l79.647,138.555
	C544.257,486.134,433.343,556.33,301.282,486.134z"/>
</svg>
