<?xml version="1.0" encoding="utf-8"?>
<!-- Generator: Adobe Illustrator 15.1.0, SVG Export Plug-In . SVG Version: 6.00 Build 0)  -->
<!DOCTYPE svg PUBLIC "-//W3C//DTD SVG 1.1//EN" "http://www.w3.org/Graphics/SVG/1.1/DTD/svg11.dtd">
<svg version="1.1" id="Layer_1" xmlns="http://www.w3.org/2000/svg" xmlns:xlink="http://www.w3.org/1999/xlink" x="0px" y="0px"
	 width="716.935px" height="788.917px" viewBox="0 0 716.935 788.917" enable-background="new 0 0 716.935 788.917"
	 xml:space="preserve">
<path fill="#FFFFFF" d="M711.767,709.999c-0.832-9-1.166-8.5-7.332-20.333c-6.168-11.833-124.668-216.333-124.668-216.333
	s95.277-79.994,95.277-227.368h-80.461c0,0,4.107,79.227-57.469,152.707c-40.477-69.64-79.229-136.7-79.229-136.7l17.881-18.305
	c0,0,5.668-3.167,5.668-18s0-94.5,0-94.5s1.332-49.25-49.25-49.25c-11.375,0-22.916-0.083-22.916-0.083V0H307.372v81.917
	c0,0-17.104,0-22.604,0s-49.5,1.083-49.5,50.583s0,93.167,0,93.167s0.416,13.083,5.416,18.083s18.917,18.917,18.917,18.917
	l-251,434.667c0,0-2.667,3.999-3.667,17.666s-4.833,62-4.833,62s-0.751,7.749,1.833,10.333s9.75,1.583,11.334,0
	c1.583-1.583,56.5-37.873,60.333-41.665s7.167-5.834,13.167-17.334c11-19,56.166-97.333,56.166-97.333l61.834-107.667
	c0,0,141,89.668,307.333,0.334c14.301,24.253,118.334,202.499,118.334,202.499s6.166,13.166,15.5,19.833
	c9.332,6.667,58,39.5,58,39.5s3.334,3.167,8.166,2.333c4.834-0.834,4.834-8.001,4.834-12.834S712.601,718.999,711.767,709.999z
	 M358.467,122.708c79.501,0,81.751,122.833,0,122.833C275.968,245.541,279.468,122.708,358.467,122.708z M245.468,451.667
	l74.083-128.875l16.917,16.876c0,0,8.289,8.041,21.999,8.041s22.918-9,22.918-9l16-15.917l74.083,128.875
	C471.468,451.667,368.302,516.958,245.468,451.667z"/>
</svg>
