<?xml version="1.0" encoding="utf-8"?>
<!-- Generator: Adobe Illustrator 15.1.0, SVG Export Plug-In . SVG Version: 6.00 Build 0)  -->
<!DOCTYPE svg PUBLIC "-//W3C//DTD SVG 1.1//EN" "http://www.w3.org/Graphics/SVG/1.1/DTD/svg11.dtd">
<svg version="1.1" id="Layer_1" xmlns="http://www.w3.org/2000/svg" xmlns:xlink="http://www.w3.org/1999/xlink" x="0px" y="0px"
	 width="552.846px" height="449.022px" viewBox="0 0 552.846 449.022" enable-background="new 0 0 552.846 449.022"
	 xml:space="preserve">
<path fill="#FFFFFF" d="M490.51,143.981C426.843,94.647,314.177,8.314,314.177,8.314s-21.917-18.708-47.167,0
	c-6.75,5.583-14.875,19.833,3.125,33.458l68.376,56.292H114.635c0,0-35.625,5.583-35.625,32.708c0,7.875,4.125,21.625,32.125,21.625
	h107.063L17.635,307.272c0,0-32.625,27.5-9.125,54.75c27.438,27.438,73-18.75,73-18.75l89.083-72.875c0,0-1.338,14-1.338,19.5
	c0,40.75,47.254,159.125,191.379,159.125c87.875,0,192.209-63.042,192.209-175.479C552.844,273.543,554.177,193.314,490.51,143.981z
	 M243.135,259.592c7.625-139.445,225.875-143.195,234.375,0C468.76,401.897,252.01,399.397,243.135,259.592z"/>
<path fill="#FFFFFF" d="M289.049,256.185c5.621,88.539,142.891,90.125,148.432,0C432.099,165.5,293.878,167.875,289.049,256.185z"/>
</svg>
