<?xml version="1.0" encoding="utf-8"?>
<!-- Generator: Adobe Illustrator 15.1.0, SVG Export Plug-In . SVG Version: 6.00 Build 0)  -->
<!DOCTYPE svg PUBLIC "-//W3C//DTD SVG 1.1//EN" "http://www.w3.org/Graphics/SVG/1.1/DTD/svg11.dtd">
<svg version="1.1" id="Layer_1" xmlns="http://www.w3.org/2000/svg" xmlns:xlink="http://www.w3.org/1999/xlink" x="0px" y="0px"
	 width="850.394px" height="850.394px" viewBox="0 0 850.394 850.394" enable-background="new 0 0 850.394 850.394"
	 xml:space="preserve">
<path fill="#FFFFFF" d="M754.837,291.97c-97.862-75.83-271.039-208.53-271.039-208.53s-33.688-28.755-72.498,0
	c-10.375,8.582-22.865,30.485,4.803,51.428l105.099,86.524H177.088c0,0-54.758,8.583-54.758,50.276
	c0,12.104,6.34,33.239,49.378,33.239h164.563L27.991,542.962c0,0-50.147,42.27-14.026,84.155
	c42.174,42.173,112.207-28.82,112.207-28.82l136.929-112.015c0,0-2.056,21.519-2.056,29.973
	c0,62.637,72.633,244.588,294.165,244.588c135.071,0,295.439-96.9,295.439-269.727C850.648,491.116,852.699,367.799,754.837,291.97z
	 M374.603,469.674c11.72-214.338,347.188-220.102,360.252,0C721.406,688.407,388.244,684.565,374.603,469.674z"/>
<path fill="#FFFFFF" d="M445.176,464.437c8.64,136.09,219.635,138.528,228.151,0C665.055,325.046,452.6,328.696,445.176,464.437z"/>
</svg>
