<?xml version="1.0" encoding="utf-8"?>
<!-- Generator: Adobe Illustrator 15.1.0, SVG Export Plug-In . SVG Version: 6.00 Build 0)  -->
<!DOCTYPE svg PUBLIC "-//W3C//DTD SVG 1.1//EN" "http://www.w3.org/Graphics/SVG/1.1/DTD/svg11.dtd">
<svg version="1.1" id="Layer_1" xmlns="http://www.w3.org/2000/svg" xmlns:xlink="http://www.w3.org/1999/xlink" x="0px" y="0px"
	 width="850.394px" height="850.395px" viewBox="0 0 850.394 850.395" enable-background="new 0 0 850.394 850.395"
	 xml:space="preserve">
<path fill="#FFFFFF" d="M545.746,333.887c0,0-61.955-94.708-163.572-94.708c-101.617,0-191.064,84.77-191.064,184.974
	c0,100.206,77.872,191.749,192.576,191.749c114.705,0,162.06-92.596,162.06-93.648s162.062,93.648,162.062,93.648
	S603.625,807.423,383.686,807.423c-219.937,0-381.992-187.782-381.992-383.271c0-195.497,172.932-376.38,376.385-376.38
	c203.448,0,329.728,172.465,329.728,190.354C545.746,333.887,545.746,333.887,545.746,333.887z"/>
<path fill="#FFFFFF" d="M850.394,385.208v-30.16h-28.757l11.222-49.813h-32.976l-8.419,49.813h-49.804l7.711-49.813h-32.968
	l-8.416,50.511h-33.675v29.461h30.863l-10.523,55.419h-32.97v28.767h29.468l-11.93,50.515h32.975l8.417-50.515h51.211l-9.117,50.515
	h33.675l8.417-50.515h32.969V439.23h-28.759l8.419-54.021H850.394z M779.017,439.748h-54.375l8.419-54.366h54.375L779.017,439.748z"
	/>
</svg>
