<?xml version="1.0" encoding="utf-8"?>
<!-- Generator: Adobe Illustrator 15.1.0, SVG Export Plug-In . SVG Version: 6.00 Build 0)  -->
<!DOCTYPE svg PUBLIC "-//W3C//DTD SVG 1.1//EN" "http://www.w3.org/Graphics/SVG/1.1/DTD/svg11.dtd">
<svg version="1.1" id="Layer_1" xmlns="http://www.w3.org/2000/svg" xmlns:xlink="http://www.w3.org/1999/xlink" x="0px" y="0px"
	 width="201.625px" height="180.472px" viewBox="0 0 201.625 180.472" enable-background="new 0 0 201.625 180.472"
	 xml:space="preserve">
<path fill="#FFFFFF" d="M129.249,67.97c0,0-14.719-22.5-38.86-22.5S44.998,65.609,44.998,89.415c0,23.805,18.5,45.554,45.75,45.554
	s38.5-21.999,38.5-22.249s38.501,22.249,38.501,22.249s-24.75,45.5-77.001,45.5c-52.25,0-90.75-44.611-90.75-91.053
	c0-46.445,41.083-89.417,89.418-89.417c48.333,0,78.333,40.973,78.333,45.223C129.249,67.97,129.249,67.97,129.249,67.97z"/>
<path fill="#FFFFFF" d="M201.625,80.163v-7.166h-6.832l2.666-11.834h-7.834l-2,11.834h-11.832l1.832-11.834h-7.832l-2,12h-8v7h7.332
	l-2.5,13.166h-7.833v6.834h7l-2.834,12h7.833l2-12h12.166l-2.166,12h8l2-12h7.832v-7.166h-6.832l2-12.834H201.625z M184.667,93.12
	H171.75l2-12.916h12.918L184.667,93.12z"/>
</svg>
